
<?xml version="1.0" encoding="iso-8859-1"?>
<!-- Generator: Adobe Illustrator 19.0.0, SVG Export Plug-In . SVG Version: 6.00 Build 0)  -->
<svg version="1.1" id="Capa_1" xmlns="http://www.w3.org/2000/svg" xmlns:xlink="http://www.w3.org/1999/xlink" x="0px" y="0px"
	 viewBox="0 0 512 512" style="enable-background:new 0 0 512 512;" xml:space="preserve">
<circle style="fill:#41B4E6;" cx="255.997" cy="256" r="255.997"/>
<path style="fill:#0091C8;" d="M512,256.003c0-6.238-0.235-12.419-0.673-18.546L405.228,131.36L106.772,248.759l114.191,114.192
	l1.498,5.392l1.939-1.955l0.008,0.008l-1.947,1.947L348.778,494.66C444.298,457.5,512,364.663,512,256.003z"/>
<polygon style="fill:#FFFFFF;" points="231.138,293.3 346.829,380.647 405.228,131.36 106.771,248.759 197.588,278.84 
	363.331,167.664 "/>
<polygon style="fill:#D2D2D7;" points="197.588,278.84 222.461,368.344 231.138,293.3 363.331,167.664 "/>
<polygon style="fill:#B9B9BE;" points="268.738,321.688 222.461,368.344 231.138,293.3 "/>
<g>
</g>
<g>
</g>
<g>
</g>
<g>
</g>
<g>
</g>
<g>
</g>
<g>
</g>
<g>
</g>
<g>
</g>
<g>
</g>
<g>
</g>
<g>
</g>
<g>
</g>
<g>
</g>
<g>
</g>
</svg>
