<svg xmlns="http://www.w3.org/2000/svg" viewBox="379 72.1 16 16"><path d="M386.8 79.1c-.1.2-.1.4-.2.7-.2.7-.3.9-.4 1.1-.1.2-.1.2-.2.5l0 0c0 .1-.1.2-.2.4.5-.2.8-.3 1.3-.5l.3-.1c.2-.1.4-.1.5-.2.1 0 .1 0 .2-.1-.1-.1-.2-.3-.4-.5C387.4 80.1 387.1 79.7 386.8 79.1zM383.2 84.3c-.1.4-.1.4-.1.4.1 0 .2.1.2 0 .1-.1.2-.2.4-.6.1-.1.1-.2.2-.4 0 0 0-.1.1-.1C383.6 83.9 383.3 84.1 383.2 84.3zM386.5 76.7c.1-.6.1-.7 0-1.2 0-.1 0-.1 0-.1 0 0 0 .1-.1.1-.1.3-.1.6 0 1C386.5 76.6 386.5 76.6 386.5 76.7z"/><path d="M391.3,72.1h-8.6c-1.1,0-2,0.9-2,2.1V86c0,1.1,0.9,2.1,2,2.1h6.6l4.1-4.1v-9.8C393.4,73,392.4,72.1,391.3,72.1z M389.2,82.1  c-0.2-0.2-0.3-0.3-0.5-0.4c-0.2,0-0.3,0.1-0.5,0.2c-0.1,0.1-0.3,0.1-0.6,0.2l-0.3,0.1c-0.6,0.2-0.9,0.3-1.6,0.6 c-0.2,0.1-0.3,0.1-0.5,0.2c0,0,0,0.1,0,0.1c0,0.1-0.2,0.5-0.6,1.1c-0.1,0.1-0.1,0.3-0.2,0.4c-0.2,0.4-0.3,0.6-0.6,0.8 c-0.2,0.2-0.4,0.2-0.7,0.2c-0.2,0-0.5-0.1-0.7-0.2c-0.5-0.4-0.3-1.1-0.2-1.4c0.2-0.5,0.7-0.8,1.4-1.2c0.3-0.2,0.6-0.3,0.8-0.5 c0.2-0.3,0.4-0.8,0.6-1.2l0,0c0.1-0.3,0.1-0.3,0.2-0.5c0-0.1,0.1-0.4,0.4-1.1c0.2-0.7,0.3-1.1,0.5-1.5c-0.3-0.6-0.5-1-0.6-1.4 c-0.1-0.5-0.1-0.9,0-1.4c0.2-0.7,0.7-0.8,0.8-0.8l0,0c0.2,0,0.7,0.1,0.9,0.8c0.1,0.6,0.1,0.9-0.1,1.7l-0.1,0.3  c0,0.2-0.1,0.5-0.1,0.6c0.1,0.1,0.1,0.2,0.2,0.3c0.4,0.8,0.7,1.2,1.1,1.8c0.2,0.3,0.4,0.5,0.6,0.7c0.1,0,0.2,0,0.2,0  c0.3-0.1,0.5-0.1,0.7-0.1c0.2,0,0.5,0,0.8,0.1c0.8,0.1,1,0.7,1,1c0,0.2,0,0.8-0.8,0.9c-0.2,0.1-0.6,0.1-0.8,0 C389.9,82.6,389.6,82.5,389.2,82.1z M389.7,87.1v-2.1c0-0.3,0.3-0.6,0.6-0.6h2.1L389.7,87.1z"/><path d="M390.8,81.9c0.1,0,0.1,0,0.1,0c0,0,0-0.1,0-0.1c0,0-0.1-0.1-0.3-0.1c-0.3-0.1-0.5-0.1-0.7-0.1c-0.1,0-0.1,0-0.2,0  c0.3,0.3,0.5,0.4,0.6,0.4C390.4,81.9,390.6,81.9,390.8,81.9z"/></svg>