<svg xmlns="http://www.w3.org/2000/svg" viewBox="379 72 16 16"><g><g><path fill="none" d="M380.8,86.7h12.3v-8.8h-12.3V86.7z M389.5,78.8h1.7v1.4h-1.7V78.8z M389.5,81.3h1.7v1.4h-1.7V81.3z M389.5,83.8h1.7v1.4h-1.7V83.8z M386.1,78.8h1.7v1.4h-1.7V78.8z M386.1,81.3h1.7v1.4h-1.7V81.3z M386.1,83.8h1.7v1.4h-1.7V83.8z M382.8,78.8h1.7v1.4h-1.7V78.8z M382.8,81.3h1.7v1.4h-1.7V81.3z M382.8,83.8h1.7v1.4h-1.7V83.8z"/><polygon fill="none" points="384.7 75.1 383.4 75.1 383.4 74.3 380.8 74.3 380.8 76.6 393.2 76.6 393.2 74.3 390.6 74.3 390.6 75.1 389.3 75.1 389.3 74.3 384.7 74.3"/><rect x="382.8" y="78.8" width="1.7" height="1.4"/><rect x="386.1" y="78.8" width="1.7" height="1.4"/><rect x="389.5" y="78.8" width="1.7" height="1.4"/><rect x="382.8" y="81.3" width="1.7" height="1.4"/><rect x="386.1" y="81.3" width="1.7" height="1.4"/><rect x="389.5" y="81.3" width="1.7" height="1.4"/><rect x="382.8" y="83.8" width="1.7" height="1.4"/><rect x="386.1" y="83.8" width="1.7" height="1.4"/><rect x="389.5" y="83.8" width="1.7" height="1.4"/><path d="M383.4,72v1.1h-3.8V88h14.9V73.1h-3.8V72h-1.3v1.1h-4.7V72H383.4z M393.2,86.7h-12.3v-8.8h12.3L393.2,86.7L393.2,86.7z M389.3,74.3v0.8h1.3v-0.8h2.5v2.3h-12.3v-2.3h2.5v0.8h1.3v-0.8H389.3z"/></g></g></svg>